<?xml version="1.0" encoding="UTF-8" standalone="no"?>
<svg xmlns="http://www.w3.org/2000/svg" viewBox="0 0 36.9 25.5" version="1.1">
    <g id="icon">
        <polygon id="polygon4" style="fill: var(--stroke, #abaaa9);" points="23.2 18.7 17.9 12.8 23.2 6.8 23.9 7.5 19.2 12.8 23.9 18 23.2 18.7" />
        <polygon id="polygon6" style="fill: var(--stroke, #abaaa9);" points="13.7 18.7 13 18 17.7 12.8 13 7.5 13.7 6.8 19.1 12.8 13.7 18.7" />
        <path id="path8" style="fill: var(--stroke, #abaaa9);" d="M18.45,24.36A11.39,11.39,0,0,1,7.75,17l.8-.3a10.57,10.57,0,0,0,19.8,0l.8.3A11.35,11.35,0,0,1,18.45,24.36ZM8.55,9l-.8-.3a11.81,11.81,0,0,1,6.7-6.8,11.44,11.44,0,0,1,14.7,6.7v.1l-.8.3A10.57,10.57,0,0,0,8.55,9Z" />
    </g>
</svg>