<svg xmlns="http://www.w3.org/2000/svg" viewBox="0 0 31.49 31.49">
    <g id="icon">
            <path style="fill:var(--fill,#fff);" d="M15.74,31.49A15.75,15.75,0,1,0,0,15.74,15.75,15.75,0,0,0,15.74,31.49" />
			<g style="fill:none;stroke:var(--stroke,#000);stroke-linecap:round;stroke-linejoin:round;">
            <rect style="stroke-width:0.94px;" x="8.94" y="5.92" width="13.61" height="19.65" />
			<g style="stroke-width:1.26px;">
            <line x1="11.96" y1="9.7" x2="19.52" y2="9.7" />
            <line x1="11.96" y1="21.79" x2="19.52" y2="21.79" />
			</g>
			</g>
            <path style="fill:var(--stroke,#000)" d="M17.3,16.12h-2v-.56h2v-.62h-2v-.07a1.71,1.71,0,0,1,.35-1.12,1.16,1.16,0,0,1,.94-.42,3.73,3.73,0,0,1,.46,0l.45.1.07-.64-.5-.09a2.59,2.59,0,0,0-.48,0,2,2,0,0,0-1.51.59,2.19,2.19,0,0,0-.57,1.58v.07h-.6v.62h.6v.56h-.6v.63h.6a2,2,0,0,0,.57,1.45,2,2,0,0,0,1.52.58l.5,0a3.55,3.55,0,0,0,.47-.09L17.5,18a3.13,3.13,0,0,1-.44.1,3.55,3.55,0,0,1-.46,0,1.14,1.14,0,0,1-.94-.41,1.38,1.38,0,0,1-.34-1v0h2Z" />
    </g>
</svg>