<?xml version="1.0" encoding="UTF-8" standalone="no"?>
<svg xmlns="http://www.w3.org/2000/svg" viewBox="0 0 36.9 25.5" version="1.1">
    <g id="icon">
        <path d="M18.1,24.3c-4.6,0-9-2.9-10.7-7.5l0.8-0.3c2,5.5,8.1,8.2,13.6,6.2c2.9-1.1,5.1-3.3,6.2-6.2l0.8,0.3   c-1.2,3.1-3.6,5.6-6.7,6.7C20.7,24.1,19.4,24.3,18.1,24.3z M8.1,8.9L7.3,8.6C8.5,5.5,10.9,3,14,1.9c2.9-1.1,6-1,8.8,0.3   c2.8,1.3,4.9,3.5,6,6.4l-0.8,0.3c-2-5.5-8.1-8.2-13.6-6.2C11.5,3.8,9.2,6,8.1,8.9z" style="fill: var(--stroke, #abaaa9);" />
        <path d="M7.2,14.6H6.3v-4.4h0.9V14.6z" style="fill: var(--stroke, #abaaa9);" />
        <path d="M9.3,10.2l1.1,3.2h0l1.1-3.2h1.2v4.4h-0.9v-1.3l0.1-1.9l0,0l-1.2,3.3h-0.6l-1.2-3.2l0,0L9,13.3v1.3H8.1v-4.4   H9.3z" style="fill: var(--stroke, #abaaa9);" />
        <path d="M14.4,13v1.6h-0.9v-4.4h1.8c0.5,0,0.9,0.1,1.2,0.4c0.3,0.3,0.4,0.6,0.4,1c0,0.4-0.1,0.8-0.4,1   c-0.3,0.3-0.7,0.4-1.2,0.4H14.4z M14.4,12.3h0.9c0.2,0,0.4-0.1,0.6-0.2C16,12,16,11.8,16,11.6c0-0.2-0.1-0.4-0.2-0.5   c-0.1-0.1-0.3-0.2-0.6-0.2h-0.9V12.3z" style="fill: var(--stroke, #abaaa9);" />
        <path d="M18.4,12.8v1.8h-0.9v-4.4h1.7c0.5,0,0.9,0.1,1.2,0.3c0.3,0.2,0.4,0.5,0.4,1c0,0.2-0.1,0.4-0.2,0.6   s-0.3,0.3-0.5,0.4c0.3,0.1,0.4,0.2,0.6,0.4c0.1,0.2,0.2,0.4,0.2,0.7v0.3c0,0.1,0,0.3,0,0.4s0.1,0.2,0.2,0.3v0.1h-0.9   c-0.1-0.1-0.1-0.2-0.2-0.3c0-0.2,0-0.3,0-0.4v-0.3c0-0.2-0.1-0.4-0.2-0.5c-0.1-0.1-0.3-0.2-0.5-0.2H18.4z M18.4,12.1h0.8   c0.2,0,0.4-0.1,0.6-0.2c0.1-0.1,0.2-0.3,0.2-0.5c0-0.2-0.1-0.4-0.2-0.5s-0.3-0.2-0.5-0.2h-0.8V12.1z" style="fill: var(--stroke, #abaaa9);" />
        <path d="M22.6,14.6h-0.9v-4.4h0.9V14.6z" style="fill: var(--stroke, #abaaa9);" />
        <path d="M27,14.6h-0.9l-1.8-3l0,0v3h-0.9v-4.4h0.9l1.8,3l0,0v-3H27V14.6z" style="fill: var(--stroke, #abaaa9);" />
        <path d="M30.9,10.8h-1.2v3.7h-0.9v-3.7h-1.2v-0.7h3.4V10.8z" style="fill: var(--stroke, #abaaa9);" />
    </g>
</svg>