<svg xmlns="http://www.w3.org/2000/svg" viewBox="0 0 26.36 27.45">
    <g id="icon" style="fill: var(--stroke,#fff)">
        <path d="M5.32,2.21l.27.07a2.6,2.6,0,0,1,1.13.77A11.32,11.32,0,0,1,8,4.83,11.76,11.76,0,0,1,9,6.66a3.73,3.73,0,0,1,.33,1.43,2.23,2.23,0,0,1-.66,1.6,12.62,12.62,0,0,1-1.77,1.48,1.83,1.83,0,0,0-.82,1.49,3.14,3.14,0,0,0,.25,1.25,9.45,9.45,0,0,0,1.37,2.34,21,21,0,0,0,2.91,3.2,6.54,6.54,0,0,0,2,1.29,2,2,0,0,0,1.65,0,2.38,2.38,0,0,0,.83-.65,10.67,10.67,0,0,1,1.46-1.31,2.31,2.31,0,0,1,2.36-.3,5.48,5.48,0,0,1,1.65,1,21.91,21.91,0,0,1,2.1,1.87,3,3,0,0,1,.82,1.39l.05.2v.26c0,.07,0,.13-.05.19a2,2,0,0,1-.7,1.06c-.31.28-.63.55-.94.84a7.62,7.62,0,0,1-1.93,1.35,8,8,0,0,1-4.25.74A9.74,9.74,0,0,1,13.73,27a13.33,13.33,0,0,1-3.68-1.83A23.35,23.35,0,0,1,6.36,22,32.69,32.69,0,0,1,4,19.25a22.58,22.58,0,0,1-2.82-4.53,12.67,12.67,0,0,1-1.1-3.91L0,10.31V9.42L0,9.3A13.52,13.52,0,0,1,.24,7.9,7.39,7.39,0,0,1,2.42,4.05c.43-.4.9-.77,1.34-1.16a2.65,2.65,0,0,1,1-.61L5,2.21Z"/>
        <path d="M13,1.9V0A13.32,13.32,0,0,1,26.36,13.39H24.45A11.56,11.56,0,0,0,13,1.9"/>
        <path d="M22.51,13.4H20.62A7.68,7.68,0,0,0,18.36,8,7.54,7.54,0,0,0,13,5.74V3.83a9.49,9.49,0,0,1,9.55,9.57"/>
    </g>
</svg>
