<?xml version="1.0" encoding="UTF-8" standalone="no"?>
<svg xmlns="http://www.w3.org/2000/svg" viewBox="0 0 36.9 25.5" version="1.1">
    <g id="icon">
        <path d="M18,24.3c-1.6,0-3.2-0.3-4.7-1c-2.8-1.2-5-3.5-6.1-6.4l0.8-0.3c1,2.6,3,4.7,5.6,5.9c2.6,1.2,5.5,1.2,8.1,0.2   c2.8-1.1,5-3.3,6.1-6.1l0.8,0.3c-1.2,3-3.6,5.4-6.6,6.6C20.8,24,19.4,24.3,18,24.3z M8.1,8.9L7.3,8.6c1.2-3,3.6-5.4,6.6-6.6   c2.9-1.1,6-1,8.8,0.2c2.8,1.2,5,3.5,6.1,6.4l-0.8,0.3c-1-2.6-3-4.7-5.6-5.9c-2.6-1.2-5.5-1.2-8.1-0.2C11.4,3.9,9.2,6.1,8.1,8.9z" style="fill: var(--stroke, #abaaa9);" />
        <path d="M1.6,14.6H0.7v-4.4h0.9V14.6z" style="fill: var(--stroke, #abaaa9);" />
        <path d="M3.6,10.2l1.1,3.2h0l1.1-3.2H7v4.4H6.1v-1.3l0.1-1.9l0,0L5,14.6H4.4l-1.2-3.2l0,0l0.1,1.9v1.3H2.4v-4.4H3.6z" style="fill: var(--stroke, #abaaa9);" />
        <path d="M8.7,13v1.6H7.8v-4.4h1.8c0.5,0,0.9,0.1,1.2,0.4c0.3,0.3,0.4,0.6,0.4,1c0,0.4-0.1,0.8-0.4,1   c-0.3,0.3-0.7,0.4-1.2,0.4H8.7z M8.7,12.3h0.9c0.2,0,0.4-0.1,0.6-0.2c0.1-0.1,0.2-0.3,0.2-0.5c0-0.2-0.1-0.4-0.2-0.5   c-0.1-0.1-0.3-0.2-0.6-0.2H8.7V12.3z" style="fill: var(--stroke, #abaaa9);" />
        <path d="M12.8,12.8v1.8h-0.9v-4.4h1.7c0.5,0,0.9,0.1,1.2,0.3c0.3,0.2,0.4,0.5,0.4,1c0,0.2-0.1,0.4-0.2,0.6   c-0.1,0.2-0.3,0.3-0.5,0.4c0.3,0.1,0.4,0.2,0.6,0.4c0.1,0.2,0.2,0.4,0.2,0.7v0.3c0,0.1,0,0.3,0,0.4s0.1,0.2,0.2,0.3v0.1h-0.9   c-0.1-0.1-0.1-0.2-0.2-0.3c0-0.2,0-0.3,0-0.4v-0.3c0-0.2-0.1-0.4-0.2-0.5c-0.1-0.1-0.3-0.2-0.5-0.2H12.8z M12.8,12.1h0.8   c0.2,0,0.4-0.1,0.6-0.2c0.1-0.1,0.2-0.3,0.2-0.5c0-0.2-0.1-0.4-0.2-0.5s-0.3-0.2-0.5-0.2h-0.8V12.1z" style="fill: var(--stroke, #abaaa9);" />
        <path d="M18.7,12.6h-1.8v1.3H19v0.7h-3v-4.4h3v0.7h-2.1V12h1.8V12.6z" style="fill: var(--stroke, #abaaa9);" />
        <path d="M21.9,13.4c0-0.2-0.1-0.3-0.2-0.4c-0.1-0.1-0.3-0.2-0.6-0.3c-0.5-0.2-0.9-0.3-1.2-0.5s-0.4-0.5-0.4-0.9   c0-0.4,0.2-0.7,0.5-0.9c0.3-0.2,0.7-0.3,1.2-0.3c0.5,0,0.9,0.1,1.2,0.4s0.5,0.6,0.4,1l0,0h-0.9c0-0.2-0.1-0.4-0.2-0.5   c-0.1-0.1-0.3-0.2-0.6-0.2c-0.2,0-0.4,0.1-0.5,0.2c-0.1,0.1-0.2,0.2-0.2,0.4c0,0.1,0.1,0.3,0.2,0.4c0.1,0.1,0.4,0.2,0.7,0.3   c0.5,0.1,0.9,0.3,1.1,0.5c0.2,0.2,0.4,0.5,0.4,0.9c0,0.4-0.1,0.7-0.4,0.9c-0.3,0.2-0.7,0.3-1.2,0.3c-0.5,0-0.9-0.1-1.3-0.4   s-0.5-0.6-0.5-1l0,0h0.9c0,0.3,0.1,0.5,0.2,0.6s0.4,0.2,0.7,0.2c0.2,0,0.4,0,0.6-0.1S21.9,13.6,21.9,13.4z" style="fill: var(--stroke, #abaaa9);" />
        <path d="M25.8,13.4c0-0.2-0.1-0.3-0.2-0.4c-0.1-0.1-0.3-0.2-0.6-0.3c-0.5-0.2-0.9-0.3-1.2-0.5   c-0.3-0.2-0.4-0.5-0.4-0.9c0-0.4,0.2-0.7,0.5-0.9c0.3-0.2,0.7-0.3,1.2-0.3c0.5,0,0.9,0.1,1.2,0.4c0.3,0.3,0.5,0.6,0.4,1l0,0h-0.9   c0-0.2-0.1-0.4-0.2-0.5c-0.1-0.1-0.3-0.2-0.6-0.2c-0.2,0-0.4,0.1-0.5,0.2c-0.1,0.1-0.2,0.2-0.2,0.4c0,0.1,0.1,0.3,0.2,0.4   s0.4,0.2,0.7,0.3c0.5,0.1,0.9,0.3,1.1,0.5c0.2,0.2,0.4,0.5,0.4,0.9c0,0.4-0.1,0.7-0.4,0.9c-0.3,0.2-0.7,0.3-1.2,0.3   c-0.5,0-0.9-0.1-1.3-0.4c-0.4-0.2-0.5-0.6-0.5-1l0,0h0.9c0,0.3,0.1,0.5,0.2,0.6s0.4,0.2,0.7,0.2c0.2,0,0.4,0,0.6-0.1   S25.8,13.6,25.8,13.4z" style="fill: var(--stroke, #abaaa9);" />
        <path d="M30.9,10.2v2.9c0,0.5-0.2,0.9-0.5,1.1c-0.3,0.3-0.8,0.4-1.3,0.4s-1-0.1-1.3-0.4s-0.5-0.6-0.5-1.1v-2.9h0.9v2.9   c0,0.3,0.1,0.5,0.2,0.7c0.2,0.1,0.4,0.2,0.6,0.2c0.3,0,0.5-0.1,0.7-0.2c0.2-0.1,0.2-0.4,0.2-0.7v-2.9H30.9z" style="fill: var(--stroke, #abaaa9);" />
        <path d="M32.8,10.2l1.1,3.2h0l1.1-3.2h1.2v4.4h-0.9v-1.3l0.1-1.9l0,0l-1.2,3.3h-0.6l-1.2-3.2l0,0l0.1,1.9v1.3h-0.9   v-4.4H32.8z" style="fill: var(--stroke, #abaaa9);" />
    </g>
</svg>