<svg xmlns="http://www.w3.org/2000/svg" viewBox="0 0 20 17.8">
<g id="icon" style="fill:var(--stroke,#4c4a49);">
	<polygon points="0.82,17.82 13.38,17.82 8.52,12.89 7.28,13.96 7.09,14.13 6.91,13.96 5.7,12.86 "/>
	<polygon points="0,17.07 4.84,12.16 0,7.78 "/>
	<path d="M19.42,7.8c-0.29-0.23-0.62-0.42-1.13-0.73c-0.31-0.18-0.59-0.3-0.86-0.35c-0.44-0.09-0.81,0.02-1.1,0.32
	c-0.17,0.19-0.39,0.43-0.57,0.7c-0.2,0.37-0.65,0.65-1.19,0.51c-0.26-0.06-0.65-0.23-1-0.46c-0.54-0.34-1.07-0.77-1.62-1.3
	c-0.38-0.37-0.64-0.68-0.83-1.01c-0.37-0.63-0.17-1.06-0.02-1.25l0.08-0.09c0.27-0.26,0.51-0.54,0.73-0.84
	c0.17-0.24,0.24-0.51,0.19-0.81c-0.04-0.27-0.16-0.49-0.26-0.66c-0.16-0.25-0.37-0.5-0.69-0.87c-0.23-0.27-0.45-0.5-0.68-0.68
	C10.34,0.18,10.15,0.06,9.8,0L9.5,0.07C9.33,0.15,9.2,0.27,9.06,0.44l-0.2,0.23C8.73,0.82,8.62,0.95,8.51,1.08
	c-0.45,0.58-0.7,1.25-0.75,1.99c-0.01,0.15,0,0.31,0,0.46l0.01,0.33l0.11,0.57c0.17,0.63,0.44,1.21,0.83,1.81
	C9.15,6.9,9.69,7.53,10.4,8.19c0.43,0.4,0.88,0.78,1.34,1.13c0.7,0.53,1.35,0.94,2,1.24c0.66,0.31,1.28,0.51,1.88,0.59
	c0.32,0.04,0.63,0.06,0.94,0.04c0.73-0.05,1.39-0.27,1.96-0.67c0.31-0.22,0.58-0.48,0.82-0.79l0.38-0.47
	c0.16-0.2,0.23-0.36,0.26-0.6l-0.05-0.27C19.81,8.12,19.6,7.93,19.42,7.8z"/>
	<path d="M13.01,12.07c-0.69-0.33-1.39-0.76-2.12-1.3l-1.53,1.39l4.84,4.91v-4.53C13.81,12.42,13.42,12.26,13.01,12.07z"/>
	<path d="M9.25,9.41c-0.8-0.75-1.43-1.48-1.93-2.24H1.1l6,5.46l2.87-2.61C9.73,9.81,9.48,9.63,9.25,9.41z"/>
</g>
</svg>
