<?xml version="1.0" encoding="utf-8"?>
<!-- Generator: Adobe Illustrator 24.1.2, SVG Export Plug-In . SVG Version: 6.00 Build 0)  -->
<svg version="1.1" id="Ebene_1" xmlns="http://www.w3.org/2000/svg" xmlns:xlink="http://www.w3.org/1999/xlink" x="0px" y="0px"
	 viewBox="0 0 166 106" style="enable-background:new 0 0 166 106;" xml:space="preserve">
<style type="text/css">
	.st0{fill:#3C4043;}
	.st1{fill:#FFFFFF;}
	.st2{fill:#5F6368;}
	.st3{fill:#4285F4;}
	.st4{fill:#34A853;}
	.st5{fill:#FBBC04;}
	.st6{fill:#EA4335;}
</style>
<desc>Created with Sketch.</desc>
<g id="Apple_Pay_Mark_RGB_041619">
	<path id="XMLID_4_" class="st0" d="M150.7,0H14.8c-0.6,0-1.1,0-1.7,0c-0.5,0-1,0-1.4,0c-1,0-2.1,0.1-3.1,0.3c-1,0.2-2,0.5-3,1
		C4.7,1.7,3.8,2.4,3.1,3.1C2.4,3.8,1.7,4.7,1.3,5.6c-0.5,0.9-0.8,1.9-1,3c-0.2,1-0.2,2.1-0.3,3.1c0,0.5,0,1,0,1.4c0,0.6,0,1.1,0,1.7
		v76.3c0,0.6,0,1.1,0,1.7c0,0.5,0,1,0,1.4c0,1,0.1,2.1,0.3,3.1c0.2,1,0.5,2,1,3c0.5,0.9,1.1,1.8,1.8,2.5c0.7,0.7,1.6,1.4,2.5,1.8
		c0.9,0.5,1.9,0.8,3,1c1,0.2,2.1,0.2,3.1,0.3c0.5,0,1,0,1.4,0c0.6,0,1.1,0,1.7,0h135.9c0.6,0,1.1,0,1.7,0c0.5,0,1,0,1.4,0
		c1,0,2.1-0.1,3.1-0.3c1-0.2,2-0.5,3-1c0.9-0.5,1.8-1.1,2.5-1.8c0.7-0.7,1.4-1.6,1.8-2.5c0.5-0.9,0.8-1.9,1-3c0.2-1,0.2-2.1,0.3-3.1
		c0-0.5,0-1,0-1.4c0-0.6,0-1.1,0-1.7V14.8c0-0.6,0-1.1,0-1.7c0-0.5,0-1,0-1.4c0-1-0.1-2.1-0.3-3.1c-0.2-1-0.5-2-1-3
		c-0.5-0.9-1.1-1.8-1.8-2.5c-0.7-0.7-1.6-1.4-2.5-1.8c-0.9-0.5-1.9-0.8-3-1c-1-0.2-2.1-0.2-3.1-0.3c-0.5,0-1,0-1.4,0
		C151.8,0,151.3,0,150.7,0L150.7,0z"/>
	<path id="XMLID_3_" class="st1" d="M150.7,3.5l1.7,0c0.5,0,0.9,0,1.4,0c0.8,0,1.7,0.1,2.6,0.2c0.8,0.1,1.4,0.3,2,0.6
		c0.6,0.3,1.1,0.7,1.6,1.2c0.5,0.5,0.9,1,1.2,1.6c0.3,0.6,0.5,1.2,0.6,2c0.2,0.9,0.2,1.8,0.2,2.6c0,0.4,0,0.9,0,1.4
		c0,0.6,0,1.1,0,1.7v76.3c0,0.6,0,1.1,0,1.7c0,0.4,0,0.9,0,1.4c0,0.8-0.1,1.7-0.2,2.6c-0.1,0.7-0.3,1.4-0.6,2
		c-0.3,0.6-0.7,1.1-1.2,1.6c-0.5,0.5-1,0.9-1.6,1.2c-0.6,0.3-1.2,0.5-2,0.6c-0.9,0.2-1.8,0.2-2.6,0.2c-0.5,0-0.9,0-1.4,0
		c-0.6,0-1.1,0-1.7,0H14.8c0,0,0,0,0,0c-0.5,0-1.1,0-1.7,0c-0.5,0-0.9,0-1.4,0c-0.7,0-1.7-0.1-2.6-0.2c-0.7-0.1-1.4-0.3-2-0.7
		c-0.6-0.3-1.1-0.7-1.6-1.2c-0.5-0.5-0.9-1-1.2-1.6c-0.3-0.6-0.5-1.2-0.6-2c-0.2-0.9-0.2-1.8-0.2-2.6c0-0.5,0-0.9,0-1.4l0-1.3l0-0.4
		V14.8l0-0.4l0-1.3c0-0.5,0-0.9,0-1.4c0-0.8,0.1-1.7,0.2-2.6c0.1-0.7,0.3-1.4,0.6-2c0.3-0.6,0.7-1.1,1.2-1.6c0.5-0.5,1-0.9,1.6-1.2
		c0.6-0.3,1.2-0.5,2-0.6c0.9-0.2,1.8-0.2,2.6-0.2c0.5,0,0.9,0,1.4,0l1.7,0H150.7"/>
</g>
<g>
	<path class="st2" d="M79.3,52.4v16.1h-5.1V28.8h13.5c3.3-0.1,6.4,1.2,8.8,3.4c2.4,2.1,3.7,5.2,3.7,8.4c0.1,3.2-1.3,6.3-3.7,8.4
		c-2.4,2.3-5.3,3.4-8.8,3.4L79.3,52.4L79.3,52.4z M79.3,33.7v13.8h8.5c1.9,0.1,3.7-0.7,5-2.1c2.7-2.6,2.7-6.9,0.1-9.6
		c0,0-0.1-0.1-0.1-0.1c-1.3-1.4-3.1-2.2-5-2.1L79.3,33.7L79.3,33.7z"/>
	<path class="st2" d="M111.8,40.4c3.8,0,6.7,1,8.9,3c2.2,2,3.3,4.8,3.3,8.3v16.7h-4.9v-3.8h-0.2c-2.1,3.1-4.9,4.7-8.4,4.7
		c-3,0-5.5-0.9-7.5-2.7c-2-1.6-3.1-4.1-3-6.6c0-2.8,1.1-5,3.2-6.7c2.1-1.7,5-2.5,8.5-2.5c3,0,5.5,0.6,7.5,1.7v-1.2
		c0-1.7-0.8-3.4-2.1-4.5c-1.3-1.2-3.1-1.9-4.9-1.9c-2.8,0-5.1,1.2-6.8,3.6l-4.5-2.8C103.3,42.2,107,40.4,111.8,40.4z M105.2,60.1
		c0,1.3,0.6,2.6,1.7,3.3c1.1,0.9,2.5,1.4,4,1.3c2.2,0,4.2-0.9,5.7-2.4c1.7-1.6,2.5-3.5,2.5-5.6c-1.6-1.3-3.8-1.9-6.6-1.9
		c-2.1,0-3.8,0.5-5.2,1.5C105.9,57.4,105.2,58.6,105.2,60.1L105.2,60.1z"/>
	<path class="st2" d="M152,41.3l-17,39.1h-5.3l6.3-13.7l-11.2-25.4h5.5l8.1,19.5h0.1l7.9-19.5H152z"/>
	<path class="st3" d="M58.7,48.9c0-1.6-0.1-3.1-0.4-4.6H36.8v8.8h12.3c-0.5,2.8-2.2,5.3-4.6,6.9v5.7h7.3
		C56.2,61.7,58.7,55.8,58.7,48.9z"/>
	<path class="st4" d="M36.8,71.2c6.1,0,11.3-2,15.1-5.5L44.5,60c-2,1.4-4.7,2.2-7.8,2.2c-5.9,0-11-4-12.8-9.4h-7.6v5.9
		C20.3,66.3,28.2,71.2,36.8,71.2z"/>
	<path class="st5" d="M24,52.8c-1-2.8-1-5.9,0-8.7v-5.9h-7.6c-3.2,6.4-3.2,14,0,20.5L24,52.8z"/>
	<path class="st6" d="M36.8,34.6c3.2-0.1,6.4,1.2,8.7,3.4l0,0l6.5-6.5c-4.1-3.9-9.6-6-15.2-5.9c-8.6,0-16.5,4.9-20.4,12.6L24,44
		C25.8,38.6,30.8,34.6,36.8,34.6z"/>
</g>
</svg>
