<?xml version="1.0" encoding="utf-8"?>
<!-- Generator: Adobe Illustrator 24.1.2, SVG Export Plug-In . SVG Version: 6.00 Build 0)  -->
<svg version="1.1"
	 id="svg3409" inkscape:version="0.92.2 5c3e80d, 2017-08-06" sodipodi:docname="MasterCard.svg" xmlns:cc="http://creativecommons.org/ns#" xmlns:dc="http://purl.org/dc/elements/1.1/" xmlns:inkscape="http://www.inkscape.org/namespaces/inkscape" xmlns:rdf="http://www.w3.org/1999/02/22-rdf-syntax-ns#" xmlns:sodipodi="http://sodipodi.sourceforge.net/DTD/sodipodi-0.dtd" xmlns:svg="http://www.w3.org/2000/svg"
	 xmlns="http://www.w3.org/2000/svg" xmlns:xlink="http://www.w3.org/1999/xlink" x="0px" y="0px" viewBox="0 0 1000 618"
	 style="enable-background:new 0 0 1000 618;" xml:space="preserve">
<style type="text/css">
	.st0{clip-path:url(#SVGID_2_);}
	.st1{fill:url(#path10283_1_);}
</style>
<sodipodi:namedview  bordercolor="#666666" borderopacity="1" gridtolerance="10" guidetolerance="10" id="namedview4178" inkscape:current-layer="g13" inkscape:cx="-105.47882" inkscape:cy="270.06961" inkscape:pageopacity="0" inkscape:pageshadow="2" inkscape:window-height="931" inkscape:window-maximized="1" inkscape:window-width="1680" inkscape:window-x="0" inkscape:window-y="1" inkscape:zoom="0.35355339" objecttolerance="10" pagecolor="#ffffff" showgrid="false">
	</sodipodi:namedview>
<g id="layer1_1_" transform="translate(-333.70157,-536.42431)">
	<g id="g10267" transform="matrix(4.9846856,0,0,-4.9846856,-1470.1185,1039.6264)">
		<g>
			<defs>
				<path id="SVGID_1_" d="M465.5,50.2c-0.1-8.7,7.7-13.5,13.7-16.4c6.1-3,8.1-4.9,8.1-7.5c0-4-4.8-5.8-9.3-5.9
					c-7.8-0.1-12.4,2.1-16,3.8L459.1,11c3.6-1.7,10.4-3.1,17.3-3.2c16.4,0,27.1,8.1,27.2,20.6c0.1,15.9-22,16.8-21.9,23.9
					c0.1,2.2,2.1,4.5,6.6,5c2.2,0.3,8.4,0.5,15.4-2.7l2.7,12.8c-3.8,1.4-8.6,2.7-14.6,2.7C476.4,70.1,465.6,61.9,465.5,50.2
					 M532.8,69c-3,0-5.5-1.7-6.6-4.4L502.8,8.7h16.4l3.3,9h20l1.9-9h14.4L546.1,69H532.8 M535.1,52.7l4.7-22.6h-12.9L535.1,52.7
					 M445.6,69L432.7,8.7h15.6L461.2,69H445.6 M422.6,69l-16.2-41l-6.6,34.9c-0.8,3.9-3.8,6.1-7.2,6.1H366l-0.4-1.8
					c5.4-1.2,11.6-3.1,15.4-5.1c2.3-1.2,3-2.3,3.7-5.3l12.4-48.1h16.5L438.9,69L422.6,69"/>
			</defs>
			<clipPath id="SVGID_2_">
				<use xlink:href="#SVGID_1_"  style="overflow:visible;"/>
			</clipPath>
			<g id="g10269" class="st0">
				<g id="g10275" transform="translate(351.611,96.896)">
					
						<linearGradient id="path10283_1_" gradientUnits="userSpaceOnUse" x1="89.3417" y1="-87.6214" x2="91.2743" y2="-87.6214" gradientTransform="matrix(419.708 154.5691 154.5691 -419.708 -23922.4004 -50671.9414)">
						<stop  offset="0" style="stop-color:#222357"/>
						<stop  offset="1" style="stop-color:#254AA5"/>
					</linearGradient>
					<path id="path10283" class="st1" d="M-6.2-34.2l190.2,70.1l43.3-117.5L37.1-151.7"/>
				</g>
			</g>
		</g>
	</g>
</g>
</svg>
