<svg xmlns="http://www.w3.org/2000/svg" viewBox="0 0 29.19 29.19">
    <g id="icon" style="fill: var(--stroke, #fff)">
        <path d="M26.55,17.35c0,1.17-.05,2.33-.1,3.5a7.08,7.08,0,0,1-.58,2.57,4.82,4.82,0,0,1-3.39,2.78,11.45,11.45,0,0,1-2.6.29l-5.29.09v0c-1,0-2.05,0-3.08,0-1.18,0-2.37-.07-3.56-.15a5.79,5.79,0,0,1-2.82-.87A5,5,0,0,1,3,22.31a11.22,11.22,0,0,1-.25-2.52c0-2.62-.06-5.23-.06-7.85,0-1.19.05-2.38.1-3.57A6.83,6.83,0,0,1,3.41,5.6,4.84,4.84,0,0,1,6.75,3,11.5,11.5,0,0,1,9.49,2.7c2.35,0,4.71-.06,7.06-.06,1.41,0,2.81,0,4.22.11a6.89,6.89,0,0,1,2.95.71,4.89,4.89,0,0,1,2.49,3.28,11.27,11.27,0,0,1,.29,2.65c0,2.66.05,5.31.05,8m2.63.9c0-3.13,0-6.26-.06-9.39a11.39,11.39,0,0,0-.35-2.78A7.51,7.51,0,0,0,25.3,1.31,8.92,8.92,0,0,0,21,.11C19.53,0,18,0,16.54,0c-2.23,0-4.46,0-6.68,0A18.07,18.07,0,0,0,6.74.28,8.2,8.2,0,0,0,3.26,1.74a7.81,7.81,0,0,0-3,5.43A28.89,28.89,0,0,0,0,11c0,2.09,0,4.18,0,6.27a42.31,42.31,0,0,0,.17,4.5A8.57,8.57,0,0,0,1.26,25.2a7.61,7.61,0,0,0,5.46,3.71,21.73,21.73,0,0,0,3.6.26c1.42,0,2.85,0,4.27,0h1.32c1.2,0,2.4,0,3.6,0a16.91,16.91,0,0,0,3.17-.28,8,8,0,0,0,3.55-1.64A7.85,7.85,0,0,0,29,21.79a34.81,34.81,0,0,0,.17-3.54"/>
        <path d="M19.46,14.6a4.86,4.86,0,1,1-4.78-4.86,4.86,4.86,0,0,1,4.78,4.86m2.65,0A7.51,7.51,0,1,0,14.6,22.1a7.54,7.54,0,0,0,7.51-7.46" style="fill: #fff"/>
        <path d="M24.16,6.81a1.77,1.77,0,1,1-3.53,0,1.77,1.77,0,0,1,3.53,0"/>
	</g>
</svg>
